<mxfile host="app.diagrams.net" agent="Mozilla/5.0 (X11; Linux x86_64) AppleWebKit/537.36 (KHTML, like Gecko) Chrome/136.0.0.0 Safari/537.36" version="27.1.5">
  <diagram name="Page-1" id="98jYg_nFkzPAzGUoNCNH">
    <mxGraphModel dx="648" dy="361" grid="1" gridSize="10" guides="1" tooltips="1" connect="1" arrows="1" fold="1" page="1" pageScale="1" pageWidth="827" pageHeight="1169" math="0" shadow="0">
      <root>
        <mxCell id="0" />
        <mxCell id="1" parent="0" />
        <mxCell id="E0mLWoPDoL_TyYvZhU5O-2" style="edgeStyle=orthogonalEdgeStyle;rounded=0;orthogonalLoop=1;jettySize=auto;html=1;entryX=0.5;entryY=0;entryDx=0;entryDy=0;" edge="1" parent="1" source="9azDKJrZ2i0USl6iixJd-1" target="9azDKJrZ2i0USl6iixJd-4">
          <mxGeometry relative="1" as="geometry" />
        </mxCell>
        <mxCell id="E0mLWoPDoL_TyYvZhU5O-3" style="edgeStyle=orthogonalEdgeStyle;rounded=0;orthogonalLoop=1;jettySize=auto;html=1;" edge="1" parent="1" source="9azDKJrZ2i0USl6iixJd-1" target="9azDKJrZ2i0USl6iixJd-5">
          <mxGeometry relative="1" as="geometry" />
        </mxCell>
        <mxCell id="9azDKJrZ2i0USl6iixJd-1" value="&lt;font style=&quot;font-size: 18px;&quot;&gt;x &amp;gt; 1&lt;/font&gt;" style="ellipse;whiteSpace=wrap;html=1;aspect=fixed;" parent="1" vertex="1">
          <mxGeometry x="190" y="90" width="50" height="50" as="geometry" />
        </mxCell>
        <mxCell id="E0mLWoPDoL_TyYvZhU5O-6" style="edgeStyle=orthogonalEdgeStyle;rounded=0;orthogonalLoop=1;jettySize=auto;html=1;" edge="1" parent="1" source="9azDKJrZ2i0USl6iixJd-4" target="E0mLWoPDoL_TyYvZhU5O-4">
          <mxGeometry relative="1" as="geometry" />
        </mxCell>
        <mxCell id="E0mLWoPDoL_TyYvZhU5O-8" style="edgeStyle=orthogonalEdgeStyle;rounded=0;orthogonalLoop=1;jettySize=auto;html=1;entryX=0.5;entryY=0;entryDx=0;entryDy=0;" edge="1" parent="1" source="9azDKJrZ2i0USl6iixJd-4" target="E0mLWoPDoL_TyYvZhU5O-7">
          <mxGeometry relative="1" as="geometry" />
        </mxCell>
        <mxCell id="9azDKJrZ2i0USl6iixJd-4" value="&lt;font style=&quot;font-size: 18px;&quot;&gt;y &amp;lt; 5&lt;/font&gt;" style="ellipse;whiteSpace=wrap;html=1;aspect=fixed;" parent="1" vertex="1">
          <mxGeometry x="120" y="160" width="50" height="50" as="geometry" />
        </mxCell>
        <mxCell id="E0mLWoPDoL_TyYvZhU5O-11" style="edgeStyle=orthogonalEdgeStyle;rounded=0;orthogonalLoop=1;jettySize=auto;html=1;" edge="1" parent="1" source="9azDKJrZ2i0USl6iixJd-5" target="E0mLWoPDoL_TyYvZhU5O-10">
          <mxGeometry relative="1" as="geometry" />
        </mxCell>
        <mxCell id="E0mLWoPDoL_TyYvZhU5O-13" style="edgeStyle=orthogonalEdgeStyle;rounded=0;orthogonalLoop=1;jettySize=auto;html=1;exitX=1;exitY=0.5;exitDx=0;exitDy=0;entryX=0.5;entryY=0;entryDx=0;entryDy=0;" edge="1" parent="1" source="9azDKJrZ2i0USl6iixJd-5" target="E0mLWoPDoL_TyYvZhU5O-12">
          <mxGeometry relative="1" as="geometry" />
        </mxCell>
        <mxCell id="9azDKJrZ2i0USl6iixJd-5" value="&lt;font style=&quot;font-size: 18px;&quot;&gt;y &amp;gt; 8&lt;/font&gt;" style="ellipse;whiteSpace=wrap;html=1;aspect=fixed;" parent="1" vertex="1">
          <mxGeometry x="260" y="160" width="50" height="50" as="geometry" />
        </mxCell>
        <mxCell id="E0mLWoPDoL_TyYvZhU5O-4" value="" style="ellipse;whiteSpace=wrap;html=1;aspect=fixed;fillColor=#d5e8d4;strokeColor=#82b366;" vertex="1" parent="1">
          <mxGeometry x="90" y="230" width="20" height="20" as="geometry" />
        </mxCell>
        <mxCell id="E0mLWoPDoL_TyYvZhU5O-7" value="" style="ellipse;whiteSpace=wrap;html=1;aspect=fixed;fillColor=#f8cecc;strokeColor=#b85450;" vertex="1" parent="1">
          <mxGeometry x="180" y="230" width="20" height="20" as="geometry" />
        </mxCell>
        <mxCell id="E0mLWoPDoL_TyYvZhU5O-9" style="edgeStyle=orthogonalEdgeStyle;rounded=0;orthogonalLoop=1;jettySize=auto;html=1;exitX=0.5;exitY=1;exitDx=0;exitDy=0;" edge="1" parent="1" source="E0mLWoPDoL_TyYvZhU5O-7" target="E0mLWoPDoL_TyYvZhU5O-7">
          <mxGeometry relative="1" as="geometry" />
        </mxCell>
        <mxCell id="E0mLWoPDoL_TyYvZhU5O-10" value="" style="ellipse;whiteSpace=wrap;html=1;aspect=fixed;fillColor=#dae8fc;strokeColor=#6c8ebf;" vertex="1" parent="1">
          <mxGeometry x="230" y="230" width="20" height="20" as="geometry" />
        </mxCell>
        <mxCell id="E0mLWoPDoL_TyYvZhU5O-12" value="" style="ellipse;whiteSpace=wrap;html=1;aspect=fixed;fillColor=#d5e8d4;strokeColor=#82b366;" vertex="1" parent="1">
          <mxGeometry x="320" y="230" width="20" height="20" as="geometry" />
        </mxCell>
      </root>
    </mxGraphModel>
  </diagram>
</mxfile>
